<svg  viewBox="0 0 100 100" fill="none" xmlns="http://www.w3.org/2000/svg">
<g clip-path="url(#clip0_4_43)">
<path d="M63.3522 50C63.3522 57.2753 57.4543 63.1726 50.1796 63.1726C42.9048 63.1726 37.0065 57.2753 37.0065 50C37.0065 42.7247 42.9043 36.8274 50.179 36.8274C57.4538 36.8274 63.3522 42.7247 63.3522 50ZM100 86.9177C100 94.143 94.143 100 86.9177 100H13.0823C5.85699 100 0 94.143 0 86.9177V13.0823C0 5.85699 5.85699 0 13.0823 0H86.9172C94.143 0 100 5.85699 100 13.0823V86.9177ZM82.2581 48.0145C82.2581 46.6527 81.3452 45.4946 79.9989 45.2876L73.0796 44.2172C72.5108 41.9543 71.636 39.821 70.4683 37.8699L74.6441 32.1898C75.4495 31.0919 75.3382 29.5704 74.3753 28.6075L71.5699 25.7995C70.607 24.8366 69.0871 24.7204 67.9887 25.5253L62.3091 29.6909C60.3575 28.5226 58.2253 27.628 55.9618 27.0591L54.8914 20.0909C54.6844 18.7446 53.5263 17.7419 52.1645 17.7419H48.1936C46.8317 17.7419 45.6737 18.7446 45.4667 20.0903L44.3962 27.0543C42.1333 27.6231 40 28.5204 38.0489 29.6882L32.3688 25.5237C31.271 24.7183 29.7495 24.8355 28.7866 25.7979L25.9785 28.6059C25.0156 29.5688 24.8995 31.0903 25.7043 32.1887L29.8699 37.8688C28.7016 39.8204 27.807 41.9532 27.2382 44.2161L20.1801 45.2866C18.8344 45.4946 17.7419 46.6527 17.7419 48.0145V51.9855C17.7419 53.3473 18.8344 54.5054 20.1801 54.7124L27.1887 55.7828C27.7575 58.0457 28.6769 60.179 29.8452 62.1301L25.6919 67.8102C24.8866 68.9081 25.0091 70.4296 25.972 71.3925L28.7828 74.2005C29.7457 75.1634 31.2688 75.2796 32.3667 74.4742L38.0478 70.3086C39.9995 71.4769 42.1328 72.3715 44.3957 72.9403L45.4667 79.9086C45.6737 81.2543 46.8323 82.257 48.1936 82.257H52.1645C53.5263 82.257 54.6844 81.2543 54.8914 79.9086L55.9618 72.9446C58.2247 72.3758 60.3581 71.479 62.3091 70.3108L67.9892 74.4753C69.0871 75.2806 70.6086 75.1634 71.5715 74.2011L74.3796 71.393C75.3425 70.4301 75.4586 68.9086 74.6538 67.8102L70.4882 62.1296C71.6565 60.1785 72.5511 58.0452 73.1199 55.7823L79.9989 54.7118C81.3446 54.5048 82.2581 53.3468 82.2581 51.9849V48.0145Z" fill="#686868"/>
</g>
<defs>
<clipPath id="clip0_4_43">
<rect width="100" height="100" fill="white"/>
</clipPath>
</defs>
</svg>
