<svg viewBox="0 0 100 100" fill="none" xmlns="http://www.w3.org/2000/svg">
<path d="M94.3576 0.0978508L86.0393 90.1982L49.9994 99.9021L13.959 90.1982L5.64238 0.0978508H94.3576ZM77.5957 18.4184H49.967H21.8488L23.1936 29.2988H49.967H51.4709L49.967 29.9248L24.1721 40.6682L25.0275 51.3035L49.967 51.3844L63.3338 51.4268L62.4781 65.6076L49.9668 69.1301V69.1189L49.8643 69.1475L37.7814 66.0973L37.0482 57.2945H37.0082H25.8008H25.7613L27.2283 74.2881L49.9672 81.0125V81.0004L50.0082 81.0125L72.6252 74.4105L75.559 40.6682H49.9672H49.9041L49.9672 40.6408L76.4965 29.2988L77.5957 18.4184Z" fill="#686868"/>
</svg>
