<svg viewBox="0 0 64 64" fill="none" xmlns="http://www.w3.org/2000/svg">
<g clip-path="url(#clip0_23_318)">
<path d="M32 37.625C35.1 37.625 37.6375 35.1 37.6375 31.9875C37.6375 30.7625 37.2375 29.625 36.575 28.7C35.55 27.2875 33.8875 26.35 32.0125 26.35C30.1375 26.35 28.475 27.275 27.45 28.7C26.7875 29.625 26.3875 30.7625 26.3875 31.9875C26.375 35.1 28.9 37.625 32 37.625Z" fill="#F20149"/>
<path d="M44.3 25.1125V20.3875V19.6875H43.6L38.875 19.7L38.9 25.125L44.3 25.1125Z" fill="#F20149"/>
<path d="M40.75 32C40.75 36.825 36.825 40.75 32 40.75C27.175 40.75 23.25 36.825 23.25 32C23.25 30.8375 23.4875 29.725 23.9 28.7125H19.125V41.8125C19.125 43.5 20.5 44.875 22.1875 44.875H41.8125C43.5 44.875 44.875 43.5 44.875 41.8125V28.7125H40.1C40.525 29.725 40.75 30.8375 40.75 32Z" fill="#F20149"/>
<path d="M32 0C14.325 0 0 14.325 0 32C0 49.675 14.325 64 32 64C49.675 64 64 49.675 64 32C64 14.325 49.675 0 32 0ZM48 28.7125V41.8125C48 45.225 45.225 48 41.8125 48H22.1875C18.775 48 16 45.225 16 41.8125V28.7125V22.175C16 18.7625 18.775 15.9875 22.1875 15.9875H41.8125C45.225 15.9875 48 18.7625 48 22.175V28.7125Z" fill="#F20149"/>
</g>
<defs>
<clipPath id="clip0_23_318">
<rect width="64" height="64" fill="white"/>
</clipPath>
</defs>
</svg>
