<svg viewBox="0 0 100 100" fill="none" xmlns="http://www.w3.org/2000/svg">
<g clip-path="url(#clip0_4_46)">
<path fill-rule="evenodd" clip-rule="evenodd" d="M0.196863 0.0976562C0.0855352 0.113867 0.0937383 0.248047 0.101746 0.382422C0.101746 33.5207 0.101746 66.6539 0.101746 99.7914C33.1807 100.013 66.6658 99.823 99.9023 99.8863C99.9023 66.6229 99.9023 33.3609 99.9023 0.0976562C66.6683 0.0976562 33.431 0.0976562 0.196863 0.0976562ZM50.7603 88.3139C48.4514 90.6418 44.8076 92.0127 40.325 92.0127C32.9728 92.0127 28.8908 88.4307 26.2851 83.4754C28.7933 81.8738 31.3566 80.3266 33.9695 78.8279C35.0351 81.8088 38.6348 85.16 42.6967 83.0969C45.2715 81.7885 44.9742 77.8215 44.9742 73.516C44.9742 64.576 44.9742 54.2625 44.9742 46.1973C44.966 46.0629 44.958 45.9287 45.0683 45.9125C48.1361 45.9125 51.2037 45.9125 54.2707 45.9125C54.2707 53.0977 54.2707 61.2254 54.2707 68.8674C54.2707 77.1873 54.8652 84.1773 50.7603 88.3139ZM91.9328 80.0619C91.4105 87.8518 85.0494 91.9883 76.4699 92.0127C68.0594 92.0369 62.6762 88.2992 59.3931 82.527C61.7535 80.9025 64.4279 79.5939 66.8883 78.0695C68.857 81.1479 72.2666 84.1066 77.3236 83.6656C80.4742 83.391 84.1314 80.8228 82.0668 76.9309C81.0654 75.0441 78.6457 74.0857 76.4699 73.1369C69.5652 70.1244 61.4644 67.3613 62.2392 56.5369C62.4984 52.9209 64.1635 50.3797 66.3191 48.5689C68.5283 46.7135 71.4871 45.4699 75.4264 45.3441C82.5805 45.115 86.5051 48.2973 89.182 52.7434C86.9039 54.4799 84.3941 55.9871 81.8771 57.4857C81.0512 54.9477 77.0639 52.4744 73.7185 53.9762C72.1973 54.6584 70.8303 56.6639 71.6318 59.098C72.3467 61.2689 75.2625 62.4572 77.6082 63.4621C84.7082 66.5012 92.6428 69.4713 91.9328 80.0619Z" fill="#686868"/>
</g>
<defs>
<clipPath id="clip0_4_46">
<rect width="100" height="100" fill="white"/>
</clipPath>
</defs>
</svg>
