<svg viewBox="0 0 100 100" fill="none" xmlns="http://www.w3.org/2000/svg">
<path d="M69.2896 69.0125C72.98 68.6271 75.7796 65.4154 75.6521 61.5617C75.525 57.7079 72.3433 54.6246 68.5258 54.6246H68.2712C64.3267 54.7533 61.2725 58.0933 61.3996 62.0754C61.5271 64.0025 62.2904 65.6725 63.4358 66.8288C59.1092 75.4358 52.4921 81.7304 42.5663 86.9975C35.8216 90.5942 28.8226 91.8787 21.8236 90.9796C16.0972 90.2087 11.6433 87.6396 8.84371 83.4004C4.77154 77.1058 4.38979 70.2971 7.82567 63.4887C10.2435 58.6071 14.0611 55.01 16.479 53.2117C15.9699 51.5417 15.2064 48.7154 14.8246 46.66C-3.62722 60.1487 -1.71841 78.3904 3.88078 86.9975C8.08017 93.4204 16.6062 97.4029 26.023 97.4029C28.5681 97.4029 31.1132 97.1458 33.6582 96.5037C49.9467 93.2921 62.2904 83.5287 69.2896 69.0125ZM91.6862 53.0829C82.015 41.6499 67.7625 35.3552 51.4737 35.3552H49.4379C48.2925 33.0429 45.8746 31.5013 43.2025 31.5013H42.9479C39.0029 31.6298 35.9488 34.9698 36.0761 38.9522C36.2033 42.8063 39.3847 45.8892 43.2025 45.8892H43.4567C46.2562 45.7608 48.6742 43.9621 49.6921 41.5215H51.9829C61.6542 41.5215 70.8167 44.3475 79.0879 49.8717C85.4508 54.1108 90.0317 59.6346 92.5771 66.3146C94.7404 71.7104 94.6129 76.9771 92.3225 81.4733C88.7592 88.2821 82.7783 92.0075 74.8888 92.0075C69.7983 92.0075 64.9629 90.4658 62.4179 89.3096C61.0179 90.5942 58.4729 92.6496 56.6912 93.9342C62.1633 96.5038 67.7625 97.9167 73.1071 97.9167C85.3233 97.9167 94.3583 91.1083 97.7942 84.2996C101.485 76.8487 101.23 64.0025 91.6862 53.0829ZM27.041 71.1962C27.1683 75.0504 30.3497 78.1333 34.1673 78.1333H34.4218C38.3667 78.005 41.4208 74.665 41.2935 70.6825C41.1663 66.8288 37.9849 63.7454 34.1673 63.7454H33.9127C33.6582 63.7454 33.2765 63.7454 33.022 63.8742C27.8046 55.1383 25.6412 45.6321 26.4047 35.3552C26.9138 27.6475 29.4589 20.9674 33.9127 15.4435C37.6031 10.6903 44.7292 8.378 49.565 8.24954C63.0542 7.99263 68.7804 24.9498 69.1621 31.7583C70.8167 32.1437 73.6162 33.0429 75.525 33.6852C73.9979 12.8742 61.2725 2.08334 49.0558 2.08334C37.6031 2.08334 27.041 10.4334 22.8417 22.7659C16.988 39.2091 20.8056 55.01 27.9318 67.4708C27.2955 68.37 26.9138 69.7833 27.041 71.1962Z" fill="#686868"/>
</svg>
