<svg viewBox="0 0 64 64" fill="none" xmlns="http://www.w3.org/2000/svg">
<path d="M44.244 20.08C44.256 20.08 44.272 20.08 44.288 20.08C44.706 20.08 45.094 20.21 45.412 20.434L45.406 20.43C45.638 20.632 45.794 20.916 45.832 21.236V21.242C45.872 21.486 45.894 21.766 45.894 22.052C45.894 22.182 45.89 22.31 45.88 22.438V22.42C45.43 27.158 43.478 38.648 42.486 43.952C42.066 46.198 41.24 46.95 40.44 47.022C38.702 47.184 37.382 45.874 35.698 44.77C33.062 43.04 31.572 41.964 29.014 40.278C26.056 38.332 27.974 37.258 29.658 35.51C30.1 35.05 37.762 28.08 37.912 27.448C37.92 27.41 37.924 27.368 37.924 27.324C37.924 27.168 37.866 27.026 37.772 26.918C37.668 26.85 37.538 26.812 37.402 26.812C37.312 26.812 37.226 26.83 37.146 26.86L37.15 26.858C36.886 26.918 32.6753 29.7007 24.518 35.206C23.628 35.908 22.504 36.352 21.28 36.404H21.268C19.534 36.194 17.96 35.808 16.466 35.258L16.614 35.306C14.738 34.694 13.248 34.372 13.376 33.336C13.444 32.7973 14.1867 32.246 15.604 31.682C24.3347 27.878 30.1567 25.3707 33.07 24.16C36.284 22.454 40.01 21.05 43.928 20.14L44.242 20.078L44.244 20.08ZM31.86 2.04999C15.256 2.08999 1.81 15.56 1.81 32.17C1.81 48.804 15.294 62.29 31.93 62.29C48.566 62.29 62.05 48.806 62.05 32.17C62.05 15.56 48.604 2.08999 32.004 2.04999H32C31.9533 2.04999 31.9067 2.04999 31.86 2.04999Z" fill="#F20149" stroke="#F20149" stroke-width="2"/>
</svg>
